# xmcd
#
# Track frame offsets:
#	150
#	11030
#	22880
#	34122
#	47582
#	61610
#	75005
#	83742
#	110262
#	124852
#	134065
#	145745
#	160705
#	177007
#	187925
#	199512
#	213947
#	227880
#	246957
#
# Disc length: 3537 seconds
#
# Revision: 1
# Processed by: cddbd v1.5.1PL0 Copyright (c) Steve Scherf et al.
# Submitted via: CDex 1.50Beta5
#
DISCID=e70dcf13
DTITLE=ペレス・プラード - ペレス・プラード〈TWIN BEST〉 Disc 1
DYEAR=2001
DGENRE=Latin
TTITLE0=マンボNo.5
TTITLE1=マンボNo.8
TTITLE2=セレソ・ローサ
TTITLE3=マンボ・オン・サックス
TTITLE4=チュラ・リンダ
TTITLE5=マンボ・パチューコ
TTITLE6=タブー
TTITLE7=エル・クンバンチェロ
TTITLE8=バンブル・ビー・マンボ
TTITLE9=マンボ・ジャンボ
TTITLE10=黒馬のマンボ
TTITLE11=キエン・セラ
TTITLE12=闘牛士のマンボ
TTITLE13=パトリシア
TTITLE14=黒いマンボ
TTITLE15=キサス・キサス・キサス
TTITLE16=モスキート
TTITLE17=マンボ・ラティーノ
TTITLE18=マンボに夢中
EXTD=
EXTT0=
EXTT1=
EXTT2=
EXTT3=
EXTT4=
EXTT5=
EXTT6=
EXTT7=
EXTT8=
EXTT9=
EXTT10=
EXTT11=
EXTT12=
EXTT13=
EXTT14=
EXTT15=
EXTT16=
EXTT17=
EXTT18=
PLAYORDER=
